<svg xmlns="http://www.w3.org/2000/svg" viewBox="0 0 278.8 112.3"><linearGradient id="a" gradientUnits="userSpaceOnUse" x1="123.204" y1="114.86" x2="263.654" y2="5.128"><stop offset="0" stop-color="#674186"/><stop offset="1" stop-color="#bd479a"/></linearGradient><path d="M118.7 33l2.8-29.5c.1-1.1.7-1.6 1.7-1.6h2.5c.9 0 1.6.4 1.9 1.3L138 27.7l10.2-24.5c.4-.9 1-1.3 2-1.3h2.4c1.1 0 1.7.5 1.8 1.6l2.8 29.5c.1 1.2-.5 1.8-1.6 1.8H154c-1.1 0-1.7-.5-1.8-1.6l-2-23.8-9.9 23.6c-.4.9-1 1.3-2 1.3h-.8c-1 0-1.6-.4-1.9-1.3l-9.8-23.6-2.1 23.8c-.1 1.1-.7 1.6-1.8 1.6h-1.6c-1 0-1.6-.6-1.6-1.8zm43.2-10c0-6.8 5.6-12.3 12.4-12.3 6.9 0 12.5 5.6 12.5 12.3 0 6.8-5.6 12.3-12.5 12.3s-12.4-5.5-12.4-12.3zm20 0c0-4.5-3.4-8.1-7.7-8.1-4.2 0-7.6 3.6-7.6 8.1s3.4 8 7.6 8c4.4.1 7.7-3.5 7.7-8zm10.2 10.1V12.9c0-1.1.7-1.7 1.7-1.7h1.4c1.1 0 1.7.6 1.7 1.7v2.9c1-3.3 4-5.1 7.9-5.1 5.2 0 9 3.4 9 10.8v11.6c0 1.1-.7 1.7-1.7 1.7h-1.4c-1.1 0-1.7-.6-1.7-1.7V21.5c0-4.8-2.2-6.6-4.7-6.6-2.4 0-7.3 1.6-7.3 8.8v9.4c0 1.1-.6 1.7-1.7 1.7h-1.4c-1.1 0-1.8-.6-1.8-1.7zm26.7-10c0-6.9 5.4-12.4 12.7-12.4 5.9 0 11.3 3.5 12 11.1.1 1.1-.5 1.7-1.6 1.7h-18.2c-.1 4.4 3.5 7.6 8.6 7.6 2.3 0 4.4-.6 6.4-2 .9-.6 1.6-.5 2.4.2l.3.4c.8.8.8 1.8-.3 2.7-2.7 2.2-5.9 2.9-8.8 2.9-8.4 0-13.5-5.5-13.5-12.2zm19.9-3.2c-1.2-4.2-4.5-5.1-7.1-5.1-2.7 0-6.1 1.1-7.6 5.1h14.7zm12.6 23.4l3.6-9.5-9-20.7c-.5-1.2.1-2 1.3-2h1.9c1 0 1.6.4 1.9 1.3l6.5 15.9 6-15.9c.3-.9 1-1.4 2-1.4h1.9c1.3 0 1.8.8 1.3 2l-13 31c-.4.9-1 1.3-2 1.3h-1.1c-1.3 0-1.8-.8-1.3-2zM117.6 64.6c-.5-1 .1-1.8 1.1-2.1l1.4-.3c1-.2 1.6.1 2.1 1.1 1.2 2 3.7 3.6 7 3.6 4.2 0 6.8-2.1 6.8-4.9 0-2.5-2.1-4-4.8-5l-4.9-1.7c-6.2-2.1-7.7-5.8-7.7-8.8 0-5.7 5-9.2 10.7-9.2 5.2 0 8.8 2.5 10.4 6.2.4 1-.1 1.8-1.1 2.1l-1.2.4c-1 .3-1.7-.1-2.2-1.1-1.1-2.2-3.1-3.2-5.8-3.2-3.1 0-5.7 1.7-5.7 4.6 0 1.4.4 3.2 4.2 4.6l4.9 1.8c5.6 1.7 8.1 5.4 8.1 8.9 0 5.9-4.7 9.6-11.6 9.6-5.8.1-10-2.7-11.7-6.6zm28.3-4.1V48.9c0-1.1.6-1.7 1.7-1.7h1.4c1.1 0 1.7.6 1.7 1.7v11.6c0 4.8 2.2 6.6 4.7 6.6 2.4 0 7.3-1.7 7.3-8.8v-9.4c0-1.1.6-1.7 1.7-1.7h1.4c1.1 0 1.7.6 1.7 1.7v20.2c0 1.1-.7 1.7-1.7 1.7h-1.4c-1.1 0-1.7-.6-1.7-1.7v-2.9c-1 3.3-4 5.1-7.9 5.1-5.2 0-8.9-3.4-8.9-10.8zm28.7 19.1V48.9c0-1.1.7-1.7 1.7-1.7h1.4c1.1 0 1.7.6 1.7 1.7v2c2.2-3.2 5.3-4.2 8.5-4.2 7 0 11.7 5.5 11.7 12.3s-4.7 12.3-11.7 12.3c-3.1 0-6.3-1.1-8.5-4.2v12.6c0 1.1-.6 1.7-1.7 1.7h-1.4c-1-.1-1.7-.7-1.7-1.8zM194.7 59c0-4.4-2.7-8.1-7.5-8.1-4.6 0-7.8 3.4-7.9 8.1.1 4.7 3.2 8.1 7.9 8.1 4.8 0 7.5-3.7 7.5-8.1zm8.5.1c0-6.9 5.4-12.4 12.7-12.4 5.9 0 11.3 3.5 12 11 .1 1.1-.5 1.7-1.6 1.7H208c-.1 4.4 3.5 7.6 8.6 7.6 2.3 0 4.4-.6 6.4-2 .9-.6 1.6-.5 2.4.2l.3.4c.8.8.8 1.8-.3 2.7-2.7 2.2-5.9 2.9-8.8 2.9-8.3.1-13.4-5.4-13.4-12.1zm19.9-3.2c-1.2-4.2-4.5-5.1-7.1-5.1-2.7 0-6.1 1.1-7.6 5.1h14.7zm9.9 13.2V48.9c0-1.1.7-1.7 1.7-1.7h1.4c1.1 0 1.7.6 1.7 1.7v3.6c.8-3.8 3.5-5.8 6.3-5.8h1c1 .1 1.1.9 1.1 1.9V50c0 1.2-.5 1.7-1.3 1.5-.4-.1-.8-.1-1.3-.1-1.7 0-5.9.8-5.9 10.5v7.3c0 1.1-.6 1.7-1.7 1.7h-1.4c-.9-.1-1.6-.7-1.6-1.8zm-114.8 38.5l2.8-29.5c.1-1.1.7-1.6 1.7-1.6h2.5c.9 0 1.6.4 1.9 1.3l10.3 24.5 10.2-24.5c.4-.9 1-1.3 2-1.3h2.4c1.1 0 1.7.5 1.8 1.6l2.8 29.5c.1 1.2-.5 1.8-1.6 1.8h-1.6c-1.1 0-1.7-.5-1.8-1.6l-2-23.8-9.8 23.6c-.4.9-1 1.3-2 1.3h-.8c-1 0-1.6-.4-1.9-1.3L125.3 84l-2.1 23.8c-.1 1.1-.7 1.6-1.8 1.6h-1.6c-1 0-1.7-.6-1.6-1.8zm43.2-10c0-6.8 4.7-12.3 11.7-12.3 3.1 0 6.2 1.1 8.4 4.2v-2c0-1.1.7-1.7 1.7-1.7h1.4c1.1 0 1.7.6 1.7 1.7v20.2c0 1.1-.6 1.7-1.7 1.7h-1.4c-1.1 0-1.7-.6-1.7-1.7v-2c-2.2 3.2-5.3 4.2-8.4 4.2-7 0-11.7-5.5-11.7-12.3zm20.2 0c-.1-4.7-3.2-8.1-7.9-8.1-4.8 0-7.5 3.7-7.5 8.1 0 4.4 2.7 8.1 7.5 8.1 4.7 0 7.9-3.4 7.9-8.1zm11.8 10.1V87.5c0-1.1.7-1.7 1.7-1.7h1.4c1.1 0 1.7.6 1.7 1.7v3.6c.8-3.8 3.5-5.8 6.3-5.8l1 .1c1 .1 1.1.9 1.1 1.9v1.4c0 1.2-.5 1.7-1.3 1.5-.4-.1-.8-.1-1.3-.1-1.7 0-5.9.8-5.9 10.5v7.3c0 1.1-.6 1.7-1.7 1.7H195c-.9-.2-1.5-.8-1.6-1.9zm26.9-2.9l-4.6-7.5v10.3c0 1.1-.6 1.7-1.7 1.7h-1.4c-1.1 0-1.7-.6-1.7-1.7V77.1c0-1.1.7-1.7 1.7-1.7h1.4c1.1 0 1.7.6 1.7 1.7v18.6l7.2-8.9c.5-.7 1.2-1 2.1-1h1.8c1.5 0 1.9.9 1 2.1l-7.2 8.8 3.9 6c1.4 1.9 2 3.1 4.1 3.1.4 0 1.3-.1 2.1-.4.7-.2 1-.1 1.4.4l.8 1.5c.2.6 0 1.4-1.2 1.9-1.6.8-3.2.8-3.7.8-4.7-.1-6.3-3-7.7-5.2zm13.2-7.1c0-6.9 5.4-12.4 12.7-12.4 5.9 0 11.3 3.5 12 11.1.1 1.1-.5 1.7-1.6 1.7h-18.2c-.1 4.4 3.5 7.6 8.6 7.6 2.3 0 4.4-.6 6.4-2 .9-.6 1.6-.5 2.4.2l.3.4c.8.8.8 1.8-.3 2.7-2.7 2.2-5.9 2.9-8.8 2.9-8.4 0-13.5-5.5-13.5-12.2zm19.9-3.2c-1.2-4.2-4.5-5.1-7.1-5.1-2.7 0-6.1 1.1-7.6 5.1h14.7zm10.9 7.4V89.6h-2.9c-.6 0-.9-.4-.9-1v-1.8c0-.6.3-.9.9-.9h3l.9-5.4c.1-.9.7-1.4 1.5-1.4h1c.9 0 1.4.6 1.4 1.5v5.3h6.4c.6 0 .9.3.9.9v1.8c0 .6-.3 1-.9 1h-6.4v12.6c0 2.5 1.2 3.5 2.7 3.5 1.5 0 2.8-.8 2.8-2.5 0-.2 0-.5-.1-.9-.1-.7.2-1.1.9-1.1h2.2c.6 0 1 .2 1.1.8.2.8.2 1.7.2 1.7 0 3.5-2.5 6.1-7 6.1-4 .1-7.7-1.8-7.7-7.9z" fill="url(#a)"/><linearGradient id="b" gradientUnits="userSpaceOnUse" x1="-1985.805" y1="-565.407" x2="-1878.954" y2="-553.018" gradientTransform="scale(1 -1) rotate(31.385 -1833.468 3220.73)"><stop offset="0" stop-color="#776fb1"/><stop offset="1" stop-color="#b0117d"/></linearGradient><path d="M97.7 30c15.6 25.5 7.5 58.8-18 74.4s-58.8 7.5-74.4-18c-15.6-25.5 7.1-49.8 18-74.4 11-24.7 58.8-7.5 74.4 18z" opacity=".3" fill="url(#b)"/><linearGradient id="c" gradientUnits="userSpaceOnUse" x1="-738.562" y1="-348.239" x2="-657.885" y2="-309.999" gradientTransform="scale(1 -1) rotate(12.638 -1532.396 3203.72)"><stop offset="0" stop-color="#776fb1"/><stop offset="1" stop-color="#b0117d"/></linearGradient><path d="M97.5 49.1c5.4 24-9.7 47.9-33.8 53.3s-47.9-9.7-53.3-33.8 18.7-36.9 33.8-53.3c15-16.3 47.9 9.8 53.3 33.8z" opacity=".55" fill="url(#c)"/><linearGradient id="d" gradientUnits="userSpaceOnUse" x1="25.555" y1="36.988" x2="79.722" y2="79.308" gradientTransform="matrix(1 0 0 -1 0 114)"><stop offset="0" stop-color="#593ea0"/><stop offset="1" stop-color="#881058"/></linearGradient><path d="M83.8 41.2c8.1 17.2.7 37.7-16.5 45.8s-37.7.7-45.8-16.5c-8.1-17.2 7.9-31 16.5-45.8 8.7-14.8 37.8-.7 45.8 16.5z" fill="url(#d)"/></svg>